<svg xmlns="http://www.w3.org/2000/svg" viewBox="0 0 512 512"><defs><linearGradient id="g" x1="0" y1="0" x2="1" y2="1"><stop offset="0" stop-color="#37d15f"/><stop offset="1" stop-color="#25D366"/></linearGradient></defs><circle cx="256" cy="256" r="230" fill="url(#g)"/><path fill="#fff" d="M349 311c-5-3-29-17-33-19-4-2-7-3-10 3s-12 19-14 23c-3 4-6 5-11 2-5-3-20-7-38-23-14-13-23-29-26-34-3-5 0-8 2-11s5-9 8-13c3-4 3-8 0-11s-10-25-15-35c-4-9-9-8-12-8h-10c-3 0-11 3-16 8s-21 20-21 49 22 57 25 61c3 4 44 67 108 90 40 14 56 15 76 13 12-2 37-15 42-30s5-27 4-29-5-4-10-7z"/></svg>